<?xml version="1.0" encoding="UTF-8" standalone="no"?>
<!-- Created with Inkscape (http://www.inkscape.org/) -->

<svg
   xmlns:dc="http://purl.org/dc/elements/1.1/"
   xmlns:cc="http://creativecommons.org/ns#"
   xmlns:rdf="http://www.w3.org/1999/02/22-rdf-syntax-ns#"
   xmlns:svg="http://www.w3.org/2000/svg"
   xmlns="http://www.w3.org/2000/svg"
   xmlns:sodipodi="http://sodipodi.sourceforge.net/DTD/sodipodi-0.dtd"
   xmlns:inkscape="http://www.inkscape.org/namespaces/inkscape"
   width="210mm"
   height="297mm"
   viewBox="0 0 744.09448819 1052.3622047"
   id="svg2"
   version="1.1"
   inkscape:version="0.91 r13725"
   sodipodi:docname="MSDeployIcon.svg">
  <defs
     id="defs4" />
  <sodipodi:namedview
     id="base"
     pagecolor="#ffffff"
     bordercolor="#666666"
     borderopacity="1.0"
     inkscape:pageopacity="0.0"
     inkscape:pageshadow="2"
     inkscape:zoom="1.979899"
     inkscape:cx="-218.60357"
     inkscape:cy="304.11352"
     inkscape:document-units="px"
     inkscape:current-layer="layer1"
     showgrid="false"
     showguides="true"
     inkscape:guide-bbox="true"
     inkscape:window-width="1440"
     inkscape:window-height="897"
     inkscape:window-x="-8"
     inkscape:window-y="-8"
     inkscape:window-maximized="1">
    <sodipodi:guide
       position="-57.142858,541.78573"
       orientation="1,0"
       id="guide4182" />
  </sodipodi:namedview>
  <metadata
     id="metadata7">
    <rdf:RDF>
      <cc:Work
         rdf:about="">
        <dc:format>image/svg+xml</dc:format>
        <dc:type
           rdf:resource="http://purl.org/dc/dcmitype/StillImage" />
        <dc:title></dc:title>
      </cc:Work>
    </rdf:RDF>
  </metadata>
  <g
     inkscape:label="Layer 1"
     inkscape:groupmode="layer"
     id="layer1">
    <g
       id="g4232"
       transform="matrix(0,-4.6792018,4.6792018,0,-3860.4538,209.53456)"
       style="fill:#00b617;fill-opacity:1"
       inkscape:export-xdpi="90"
       inkscape:export-ydpi="90">
      <path
         inkscape:export-ydpi="90"
         inkscape:export-xdpi="90"
         sodipodi:nodetypes="ccccccc"
         inkscape:connector-curvature="0"
         id="path4253-7-5"
         d="m -127.56594,771.43432 8.18487,12.17503 -8.4918,12.89117 3.47858,6.13866 12.78886,-18.62061 -12.78886,-19.43909 z"
         style="fill:#00b617;fill-opacity:1;fill-rule:evenodd;stroke:none;stroke-width:1px;stroke-linecap:butt;stroke-linejoin:miter;stroke-opacity:1" />
      <path
         inkscape:export-ydpi="90"
         inkscape:export-xdpi="90"
         sodipodi:nodetypes="ccccccc"
         inkscape:connector-curvature="0"
         id="path4253-7-9-8"
         d="m -132.15715,776.1014 5.04734,7.50795 -5.2366,7.94956 2.14512,3.78548 7.88644,-11.48269 -7.88644,-11.98743 z"
         style="fill:#00b617;fill-opacity:1;fill-rule:evenodd;stroke:none;stroke-width:1px;stroke-linecap:butt;stroke-linejoin:miter;stroke-opacity:1" />
    </g>
    <g
       id="g4285"
       transform="matrix(0.24535471,0,0,0.24535471,-159.12235,438.73171)"
       inkscape:export-xdpi="90"
       inkscape:export-ydpi="90">
      <path
         inkscape:connector-curvature="0"
         id="path4147"
         d="m -188.71428,512.30332 -22.14286,12.85714 41.78571,22.5 21.78572,-11.42857 z"
         style="fill:#323232;fill-opacity:1;fill-rule:evenodd;stroke:none;stroke-width:1px;stroke-linecap:butt;stroke-linejoin:miter;stroke-opacity:1" />
      <path
         inkscape:connector-curvature="0"
         id="path4149"
         d="m -188.71428,539.94617 0.71428,17.85715 40.35715,23.57142 0.71428,-41.42857 L -168,550.30332 Z"
         style="fill:#323232;fill-opacity:1;fill-rule:evenodd;stroke:none;stroke-width:1px;stroke-linecap:butt;stroke-linejoin:miter;stroke-opacity:1" />
      <path
         inkscape:connector-curvature="0"
         id="path4147-4"
         d="m -102.57658,512.30332 22.14286,12.85714 -41.78571,22.5 -21.78572,-11.42857 z"
         style="fill:#323232;fill-opacity:1;fill-rule:evenodd;stroke:none;stroke-width:1px;stroke-linecap:butt;stroke-linejoin:miter;stroke-opacity:1" />
      <path
         inkscape:connector-curvature="0"
         id="path4149-5"
         d="m -102.57658,539.94617 -0.71428,17.85715 -40.35715,23.57142 -0.71428,-41.42857 21.07143,10.35715 z"
         style="fill:#323232;fill-opacity:1;fill-rule:evenodd;stroke:none;stroke-width:1px;stroke-linecap:butt;stroke-linejoin:miter;stroke-opacity:1" />
    </g>
    <path
       style="fill:#000000;fill-opacity:1;fill-rule:evenodd;stroke:#000000;stroke-width:1px;stroke-linecap:butt;stroke-linejoin:miter;stroke-opacity:1"
       d="m -196.56885,647.41299 -22.14286,12.85714 41.78571,22.5 21.78572,-11.42857 z"
       id="path4147-2"
       inkscape:connector-curvature="0" />
    <path
       style="fill:#000000;fill-opacity:1;fill-rule:evenodd;stroke:#000000;stroke-width:1px;stroke-linecap:butt;stroke-linejoin:miter;stroke-opacity:1"
       d="m -196.56885,677.05584 0.71428,17.85715 40.35715,23.57142 0.71428,-41.42857 -21.07143,10.35715 z"
       id="path4149-6"
       inkscape:connector-curvature="0" />
    <path
       sodipodi:nodetypes="ccccc"
       style="fill:#000000;fill-opacity:1;fill-rule:evenodd;stroke:#000000;stroke-width:1px;stroke-linecap:butt;stroke-linejoin:miter;stroke-opacity:1"
       d="m -196.56885,644.91299 -21.42857,-11.78572 43.21428,-29.28571 18.92857,13.21428 z"
       id="path4151-5"
       inkscape:connector-curvature="0" />
    <path
       style="fill:#000000;fill-opacity:1;fill-rule:evenodd;stroke:#000000;stroke-width:1px;stroke-linecap:butt;stroke-linejoin:miter;stroke-opacity:1"
       d="m -108.43115,647.41299 22.14286,12.85714 -41.78571,22.5 -21.78572,-11.42857 z"
       id="path4147-4-7"
       inkscape:connector-curvature="0" />
    <path
       style="fill:#000000;fill-opacity:1;fill-rule:evenodd;stroke:#000000;stroke-width:1px;stroke-linecap:butt;stroke-linejoin:miter;stroke-opacity:1"
       d="m -108.43115,677.05584 -0.71428,17.85715 -40.35715,23.57142 -0.71428,-41.42857 21.07143,10.35715 z"
       id="path4149-5-1"
       inkscape:connector-curvature="0" />
    <path
       sodipodi:nodetypes="ccccc"
       style="fill:#000000;fill-opacity:1;fill-rule:evenodd;stroke:#000000;stroke-width:1px;stroke-linecap:butt;stroke-linejoin:miter;stroke-opacity:1"
       d="m -108.43115,644.91299 21.42857,-11.78572 -43.21428,-29.28571 -18.92857,13.21428 z"
       id="path4151-2-2"
       inkscape:connector-curvature="0" />
    <path
       style="fill:#00b617;fill-opacity:1;fill-rule:evenodd;stroke:none;stroke-width:1px;stroke-linecap:butt;stroke-linejoin:miter;stroke-opacity:1"
       d="m -152.99743,620.32902 -37.5,25.71428 39.28572,21.42858 36.78571,-21.42858 z"
       id="path4212-4"
       inkscape:connector-curvature="0"
       sodipodi:nodetypes="ccccc" />
    <path
       style="fill:#00b617;fill-opacity:1;fill-rule:evenodd;stroke:none;stroke-width:1px;stroke-linecap:butt;stroke-linejoin:miter;stroke-opacity:1"
       d="m -194.98858,557.78256 -9.2008,6.30912 9.63893,5.25761 9.02555,-5.25761 z"
       id="path4212"
       inkscape:connector-curvature="0"
       sodipodi:nodetypes="ccccc"
       inkscape:export-xdpi="90"
       inkscape:export-ydpi="90" />
    <path
       style="fill:#000000;fill-opacity:1;fill-rule:evenodd;stroke:none;stroke-width:1px;stroke-linecap:butt;stroke-linejoin:miter;stroke-opacity:1"
       d="m -198.74826,564.47443 3.93494,-2.64533 4.1664,2.74453 1.984,-1.12427 -6.01814,-4.13333 -6.28267,4.13333 z"
       id="path4253-7"
       inkscape:connector-curvature="0"
       sodipodi:nodetypes="ccccccc"
       inkscape:export-xdpi="90"
       inkscape:export-ydpi="90" />
    <path
       style="fill:#000000;fill-opacity:1;fill-rule:evenodd;stroke:none;stroke-width:1px;stroke-linecap:butt;stroke-linejoin:miter;stroke-opacity:1"
       d="m -197.23987,565.9583 2.42655,-1.63129 2.56928,1.69246 1.22346,-0.6933 -3.71118,-2.54888 -3.87431,2.54888 z"
       id="path4253-7-9"
       inkscape:connector-curvature="0"
       sodipodi:nodetypes="ccccccc"
       inkscape:export-xdpi="90"
       inkscape:export-ydpi="90" />
    <text
       xml:space="preserve"
       style="font-style:normal;font-weight:normal;font-size:92.55450439px;line-height:125%;font-family:sans-serif;letter-spacing:0px;word-spacing:0px;fill:#323232;fill-opacity:1;stroke:none;stroke-width:1px;stroke-linecap:butt;stroke-linejoin:miter;stroke-opacity:1"
       x="-488.37219"
       y="889.76752"
       id="text4157"
       sodipodi:linespacing="125%"
       inkscape:export-xdpi="90"
       inkscape:export-ydpi="90"><tspan
         sodipodi:role="line"
         id="tspan4159"
         x="-488.37219"
         y="889.76752"
         style="font-style:normal;font-variant:normal;font-weight:bold;font-stretch:normal;font-size:92.55450439px;line-height:125%;font-family:'Berlin Sans FB Demi';-inkscape-font-specification:'Berlin Sans FB Demi, Bold';text-align:start;writing-mode:lr-tb;text-anchor:start;fill:#323232;fill-opacity:1">MSDeploy</tspan></text>
    <path
       style="font-style:normal;font-variant:normal;font-weight:bold;font-stretch:normal;font-size:40px;line-height:125%;font-family:'Berlin Sans FB Demi';-inkscape-font-specification:'Berlin Sans FB Demi, Bold';text-align:start;letter-spacing:0px;word-spacing:0px;writing-mode:lr-tb;text-anchor:start;fill:#000000;fill-opacity:1;stroke:none;stroke-width:1px;stroke-linecap:butt;stroke-linejoin:miter;stroke-opacity:1"
       d="m -24.672082,752.26044 c -0.0714,-0.0476 -0.17269,-0.1088 -0.3037,-0.18471 -2.39394,-1.23923 -4.41271,-1.81141 -6.0563,-1.71651 -2.01281,0.0988 -3.01922,1.23792 -3.01922,3.41747 0,1.50068 0.4109,3.14437 1.2327,4.93108 0.1191,0.25809 0.88134,1.66566 2.28674,4.22269 0.80989,1.49295 1.21484,2.6265 1.21484,3.40065 0,1.21484 -0.61934,1.71887 -1.85798,1.51213 -0.55978,-0.0994 -1.70315,-0.52842 -3.43012,-1.28712 -0.17866,-0.0834 -0.26798,-0.0592 -0.26798,0.0714 0,0.36922 0.47045,1.70723 1.41135,4.01406 0.9409,2.29492 1.54832,3.53371 1.82225,3.71639 0.0595,0.0398 0.13696,0.0849 0.23225,0.13703 2.56067,1.29088 4.73427,1.76979 6.52079,1.43675 2.03663,-0.36873 3.05495,-1.76196 3.05495,-4.17971 0,-1.29821 -0.42281,-2.88436 -1.26843,-4.75841 -0.0714,-0.14293 -0.86348,-1.6716 -2.37607,-4.58596 -0.85752,-1.63192 -1.28629,-2.81112 -1.28629,-3.53763 0,-0.8099 0.38707,-1.18299 1.16124,-1.11927 0.64314,0.0358 1.39347,0.33939 2.251,0.91165 0.11912,0.0794 0.29181,0.21246 0.5181,0.39913 0.22628,0.18668 0.38708,0.31174 0.48235,0.37529 0.21439,0.14302 0.32158,0.11318 0.32158,-0.0893 0,-0.0476 -0.0178,-0.11907 -0.0536,-0.21439 -1.13146,-3.02942 -1.85202,-5.0821 -2.16168,-6.15806 -0.10719,-0.35733 -0.25011,-0.59556 -0.42877,-0.71471 z m -13.20237,-8.23309 c -0.29775,-0.19856 -0.75629,-0.47464 -1.37562,-0.82804 -0.60742,-0.34555 -1.06,-0.61756 -1.35775,-0.81613 -0.35731,-0.2383 -0.88732,-0.6096 -1.59,-1.11398 -0.6908,-0.49647 -1.20889,-0.85982 -1.55428,-1.09017 -0.2382,-0.15886 -0.45854,-0.0735 -0.66101,0.25591 -2.35821,3.46528 -4.13877,6.04736 -5.34169,7.74625 -0.42877,0.60731 -0.70866,0.86728 -0.83967,0.77991 -0.25011,-0.1668 -0.55977,-0.7604 -0.92899,-1.78079 l -5.21663,-14.9306 c -0.23821,-0.65909 -0.42281,-1.03232 -0.55382,-1.11969 -0.65506,-0.43687 -1.63764,-1.06829 -2.94776,-1.89445 -1.31011,-0.83796 -2.2927,-1.47542 -2.94775,-1.91229 -0.51213,-0.34153 -0.76224,-0.38924 -0.75035,-0.14311 l 0.0178,0.3156 c 0.0953,2.01681 0.14889,3.52345 0.16078,4.51993 0.1191,3.87875 0.17865,6.50893 0.17865,7.8905 0,1.29821 -0.0655,3.20779 -0.19651,5.72872 -0.11911,2.51697 -0.17866,4.42457 -0.17866,5.72277 0,0.19056 0.0239,0.34345 0.0714,0.45855 0.0595,0.11115 0.20842,0.24619 0.44663,0.40504 l 5.96697,3.97943 c 0.33348,0.22241 0.50022,0.12504 0.50022,-0.29168 0,-1.16719 -0.0298,-2.93787 -0.0894,-5.31197 -0.0596,-2.37409 -0.0894,-4.14477 -0.0894,-5.31196 0,-0.2382 0.0417,-0.38307 0.12506,-0.43469 0.0833,0.12702 0.13694,0.22827 0.16078,0.30375 0.55978,1.55243 1.39945,4.02398 2.519,7.41466 1.04809,3.20011 1.89371,5.66969 2.53685,7.40871 0.11911,0.31764 0.48832,0.68297 1.10764,1.09601 0.41683,0.27798 0.65504,0.43044 0.71461,0.45874 0.17865,0.0715 0.32754,0.0101 0.44663,-0.1845 0.85753,-1.5362 1.71506,-3.07836 2.57259,-4.62647 1.46495,-2.63177 2.26292,-3.93972 2.39394,-3.92381 0.10719,0.0953 0.16078,0.31566 0.16078,0.66105 0,1.20293 -0.0477,2.97554 -0.14292,5.31784 -0.0833,2.35027 -0.12506,4.12683 -0.12506,5.32975 0,0.41686 0.1727,0.74045 0.5181,0.97081 l 6.32427,4.21771 c 0.3454,0.23035 0.5181,0.16094 0.5181,-0.2083 0,-1.2863 -0.0536,-3.26339 -0.16079,-5.93128 -0.1072,-2.6679 -0.16079,-4.65095 -0.16079,-5.94915 0,-1.4054 0.0477,-3.4698 0.14292,-6.19324 0.1072,-2.72737 0.16079,-4.79377 0.16079,-6.19917 0,-0.28584 -0.17866,-0.54791 -0.53596,-0.7862 z"
       id="path4180"
       inkscape:connector-curvature="0" />
    <path
       style="font-style:normal;font-variant:normal;font-weight:bold;font-stretch:normal;font-size:40px;line-height:125%;font-family:'Berlin Sans FB Demi';-inkscape-font-specification:'Berlin Sans FB Demi, Bold';text-align:start;letter-spacing:0px;word-spacing:0px;writing-mode:lr-tb;text-anchor:start;fill:#000000;fill-opacity:1;stroke:none;stroke-width:1px;stroke-linecap:butt;stroke-linejoin:miter;stroke-opacity:1"
       d="m -13.929232,747.27205 c -1.26767,0.66875 -2.1793,1.18097 -2.73488,1.53666 -0.22693,0.15101 -0.34039,0.30868 -0.34039,0.473 0,0.89207 0.0313,2.22148 0.0939,3.98823 0.0704,1.75481 0.10564,3.08214 0.10564,3.98203 0,0.86076 -0.0352,2.17439 -0.10564,3.9409 -0.0626,1.75456 -0.0939,3.06221 -0.0939,3.92297 0,0.17998 0.11346,0.21011 0.34039,0.0904 0.38344,-0.20228 0.95858,-0.49399 1.72544,-0.87504 0.77468,-0.38517 1.35374,-0.67895 1.73717,-0.88122 2.04236,-1.07743 3.2904696,-1.74285 3.7443196,-1.99877 2.3632,-1.32488 4.19818,-3.08722 5.50498,-5.28684 1.47894,-2.47043 2.21841,-4.85594 2.21841,-7.15652 0,-1.26767 -0.27387,-2.35565 -0.82163,-3.26393 -0.57124,-0.96631 -1.34984,-1.54154 -2.3358,-1.72567 -1.04857,-0.19804 -2.50013,0.0982 -4.35468,0.88875 -0.71208,0.30525 -2.2731996,1.09356 -4.6833296,2.36499 z m 3.34524,1.8622 c 1.3146196,-0.69351 2.3710096,-0.8165 3.1691696,-0.36898 0.79034,0.42037 1.1855,1.29176 1.1855,2.61421 0,1.39286 -0.36386,2.70771 -1.0916,3.94459 -0.77468,1.30854 -1.8389,2.31991 -3.1926396,3.03406 -1.25202,0.66049 -1.87803,0.82249 -1.87803,0.48602 0,-0.46169 -0.007,-1.1427 -0.0235,-2.0417 -0.0157,-0.90726 -0.0235,-1.58786 -0.0235,-2.04171 0,-0.46168 0.007,-1.15789 0.0235,-2.08995 0.0157,-0.93948 0.0235,-1.64003 0.0235,-2.10171 0,-0.32084 0.60253,-0.79911 1.8076,-1.43483 z m 15.9397596,-7.46982 c -1.78413,0.9412 -3.21612,2.29134 -4.29599,4.05042 -1.04857004,1.70346 -1.57285004,3.45507 -1.57285004,5.25485 0,1.84673 0.58689,3.01215 1.76066004,3.49628 1.14246,0.48501 2.64489,0.23626 4.50726,-0.74621 2.01106,-1.06091 3.49392,-2.35572 4.4485904,-3.88443 0.11737,-0.18713 0.17606,-0.30808 0.17606,-0.36285 0,-0.19563 -0.19563,-0.55019 -0.5868804,-1.06371 -0.38344,-0.51763 -0.65731,-0.77223 -0.82165,-0.76379 l -0.89206,1.034 c -0.70425,0.74713 -1.40461,1.30439 -2.10104,1.67179 -0.57906,0.30548 -1.09551,0.46837 -1.54937,0.4887 -0.55559,0.027 -0.88815,-0.18487 -0.99771,-0.6357 1.83108,-1.10682 3.2083,-1.95465 4.13167,-2.54348 1.53372,-0.96559 2.34363,-1.47892 2.42969,-1.53998 0.5086404,-0.37789 0.7629504,-0.962 0.7629504,-1.75233 0,-1.51025 -0.52429,-2.53654 -1.5728404,-3.07891 -1.04857,-0.54235 -2.32407,-0.41723 -3.82649,0.37535 z m 14.0617404,-7.03077 c -0.61036,0.32199 -1.29115,0.89632 -2.04235,1.723 -0.7434,0.81472 -1.07595,1.20143 -0.99771,1.16016 -0.0626,0.033 -0.11737,-0.13763 -0.16433,-0.51193 -0.0391,-0.38629 -0.21128,-0.4989 -0.51645,-0.33791 -0.37561,0.19814 -0.98206,0.58457 -1.81934,1.15931 -0.86077,0.58712 -1.44374,1.01986 -1.74892,1.29823 -0.0939,0.0886 -0.14085,0.19167 -0.14085,0.30905 0,0.0547 0.007,0.1176 0.0235,0.18715 0.27387,1.10754 0.41082,2.57293 0.41082,4.39617 l -0.0235,9.05041 c 0,0.23476 0.11738,0.3176 0.35213,0.24854 0.1565,-0.0435 0.50472,-0.20756 1.04465,-0.49239 l 2.39449,-1.27489 c 0.25823,-0.13623 0.38734,-0.32954 0.38734,-0.57995 0,-0.39908 -0.0196,-0.99127 -0.0587,-1.77663 -0.0391,-0.77753 -0.0587,-1.36581 -0.0587,-1.76489 0,-0.23476 0.0508,-0.37893 0.15259,-0.43263 -0.0626,0.033 0.2504,0.0166 0.93901,-0.0493 0.68861,-0.0659 1.33418,-0.2578 1.93671,-0.57566 1.6511,-0.87101 2.98529,-2.14608 4.00256,-3.8252 0.98596,-1.62347 1.47894,-3.2725 1.47894,-4.94707 0,-1.72936 -0.49298,-2.87389 -1.47894,-3.43363 -1.01727,-0.58234 -2.37493,-0.42562 -4.07298,0.47016 z m -14.5195104,10.2771 c 0.47733,-0.25181 0.88816,-0.28465 1.23246,-0.0985 0.3443,0.18615 0.51646,0.5218 0.51646,1.00696 0,0.0861 -0.12912,0.21677 -0.38734,0.39215 -1.22073,0.82395 -2.12062,1.38866 -2.69967,1.69414 -0.21911,0.11559 -0.32866,0.0677 -0.32866,-0.14353 0,-0.51646 0.14868,-1.04485 0.44603,-1.58514 0.32083,-0.58398 0.72774,-1.00601 1.22072,-1.26608 z m 13.6039704,-6.30802 c 0.61036,-0.32199 1.12291,-0.3459 1.53763,-0.0717 0.38343,0.26724 0.57515,0.71386 0.57515,1.33987 0,1.58067 -0.68861,2.73428 -2.06583,3.46081 -0.64948,0.34263 -1.15812,0.37229 -1.52589,0.089 -0.34431,-0.25656 -0.51646,-0.71743 -0.51646,-1.38256 0,-0.64948 0.16432,-1.28392 0.49298,-1.90334 0.37561,-0.69113 0.87641,-1.2018 1.50242,-1.53205 z m -24.8568804,20.77062 c -0.20345,0.10733 -0.30518,0.24709 -0.30518,0.41922 0,0.0469 0.007,0.10977 0.0235,0.18714 0.17216,1.16119 0.26997,2.6003 0.29344,4.31725 -0.007,-0.28581 -0.0117,1.21517 -0.0117,4.50172 0,0.68861 -0.007,1.73304 -0.0235,3.1346 -0.0157,1.39335 -0.0235,2.43819 -0.0235,3.13463 l 0,0.50472 c 0.0235,0.15974 0.12128,0.2138 0.29344,0.16211 0.25823,-0.0736 0.85685,-0.35812 1.79587,-0.85349 0.91553,-0.48298 1.54937,-0.84865 1.90149,-1.09701 0.19563,-0.1345 0.29345,-0.28391 0.29345,-0.44824 0,-0.2191 -0.0117,-0.52202 -0.0352,-0.90871 -0.0235,-0.4258 -0.0352,-0.72873 -0.0352,-0.90871 -0.0157,-1.13419 -0.0235,-2.76942 -0.0235,-4.90568 0,-2.59794 0.10172,-5.6408 0.30518,-9.12859 l 0.0117,-0.21745 c 0.0156,-0.17255 -0.0743,-0.20729 -0.26996,-0.10407 l -4.19036,2.21057 z m 11.65552,-1.40671 c -1.81543,0.95771 -3.25525,2.28458 -4.31947004,3.98065 -1.06421,1.68822 -1.59633,3.44006 -1.59633,5.25548 0,1.72153 0.55559,2.83696 1.66676004,3.34629 1.11117,0.50933 2.52751,0.30991 4.24904,-0.59826 1.7763,-0.93707 3.20829,-2.24808 4.29599,-3.93305 1.0955104,-1.68909 1.6432704,-3.42571 1.6432704,-5.20983 0,-1.76848 -0.54776,-2.91542 -1.6432704,-3.44083 -1.09552,-0.53324 -2.52751,-0.33339 -4.29599,0.59955 z m 7.3595304,-3.3073 c -0.25824,0.13623 -0.38735,0.30606 -0.38735,0.50952 0,0.2817 -0.007,0.71187 -0.0235,1.29181 -0.0157,0.57169 -0.0235,0.99835 -0.0235,1.28006 0,1.39287 0.0313,2.18626 0.0939,2.38016 0.10956,0.34129 0.716,0.97604 1.81933,1.90424 1.06422,0.90971 1.59633,1.40759 1.59633,1.49366 0,0.9938 -1.08769,2.06448 -3.26307,3.21208 -0.13303,0.0702 -0.19954,0.17956 -0.19954,0.32829 0,0.13302 0.09,0.3555 0.26996,0.66748 0.1252,0.21565 0.2504,0.42739 0.37561,0.63523 0.1565,0.35564 0.28561,0.66705 0.38734,0.93421 0.11738,0.0163 0.34431,-0.0643 0.68079,-0.24175 2.2145,-1.16824 3.41566,-1.86049 3.60346,-2.07704 0.15651,-0.16866 0.80991,-1.32323 1.9602,-3.46378 1.04074,-1.9419 1.68631,-3.17061 1.93671,-3.68614 1.59633,-3.28356 2.45317,-5.15193 2.57055,-5.60511 0.0939,-0.37819 0.14085,-1.32632 0.14085,-2.84439 0,-1.3068 -0.0547,-2.11132 -0.16432,-2.41344 -0.0704,-0.16632 -0.20738,-0.19578 -0.41082,-0.0885 -0.39908,0.21053 -0.99771,0.54203 -1.79587,0.99429 -0.79033,0.44823 -1.38504,0.77757 -1.78412,0.9881 -0.16434,0.0867 -0.24649,0.20433 -0.24649,0.35305 0,0.2191 0.0196,0.5335 0.0587,0.94326 0.0391,0.40977 0.0587,0.72025 0.0587,0.93153 0,0.80599 -0.0391,1.57391 -0.11738,2.30381 -0.0313,0.26693 -0.24649,0.86951 -0.64558,1.80779 -0.43037,0.99389 -0.73556,1.53832 -0.91553,1.63326 -0.21128,0.11146 -0.55167,-0.0963 -1.02118,-0.62332 -0.44603,-0.50809 -0.68078,-0.89288 -0.70426,-1.15437 -0.0313,-0.33562 -0.0469,-0.99643 -0.0469,-1.9824 0,-0.2191 0.0117,-0.55393 0.0352,-1.00454 0.0235,-0.45842 0.0352,-0.79716 0.0352,-1.01627 0,-0.24258 -0.0822,-0.32049 -0.24649,-0.23382 -0.39908,0.21053 -1.00552,0.51875 -1.81934,0.92457 -0.80599,0.40169 -1.40852,0.70785 -1.8076,0.91838 z m -7.3360604,6.92185 c 0.61036,-0.32199 1.10724,-0.34544 1.49068,-0.0704 0.38343,0.26723 0.57515,0.70993 0.57515,1.32812 0,0.63383 -0.18389,1.27469 -0.55166,1.92256 -0.3991,0.69571 -0.90382,1.20453 -1.51417,1.52652 -0.61818,0.32611 -1.12681,0.35186 -1.5259,0.0772 -0.3756,-0.25572 -0.5634,-0.7005 -0.5634,-1.33433 0,-0.62602 0.1878,-1.26502 0.5634,-1.91701 0.39909,-0.6957 0.90772,-1.2066 1.5259,-1.53271 z"
       id="path4184"
       inkscape:connector-curvature="0" />
    <text
       xml:space="preserve"
       style="font-style:normal;font-weight:normal;font-size:60.68540192px;line-height:125%;font-family:sans-serif;letter-spacing:0px;word-spacing:0px;fill:#000000;fill-opacity:1;stroke:none;stroke-width:1px;stroke-linecap:butt;stroke-linejoin:miter;stroke-opacity:1"
       x="-493.50369"
       y="938.65442"
       id="text4157-6"
       sodipodi:linespacing="125%"
       inkscape:export-xdpi="90"
       inkscape:export-ydpi="90"><tspan
         sodipodi:role="line"
         id="tspan4159-9"
         x="-493.50369"
         y="938.65442"
         style="font-style:normal;font-variant:normal;font-weight:bold;font-stretch:normal;font-size:40.40092468px;line-height:125%;font-family:'Century Gothic';-inkscape-font-specification:'Century Gothic Bold';text-align:start;letter-spacing:11.00925732px;word-spacing:2.82806492px;writing-mode:lr-tb;text-anchor:start;fill:#000000"
         dx="8.322587">All the Things</tspan></text>
  </g>
</svg>
